<?xml version="1.0" encoding="UTF-8"?>
<svg id="Layer_1" data-name="Layer 1" xmlns="http://www.w3.org/2000/svg" width="3966.91" height="540" viewBox="0 0 3966.91 540">
  <g>
    <path d="M400,240H140c-11.05,0-20-8.95-20-20h0V80h0c0-11.05,8.95-20,20-20h140c11.05,0,20,8.95,20,20h0v80c0,11.05,8.95,20,20,20h20c11.05,0,20-8.95,20-20v-80c0-11.05-8.95-20-20-20h-20c-11.05,0-20-8.95-20-20v-20c0-11.05-8.95-20-20-20h-140c-11.05,0-20,8.95-20,20v20c0,11.05-8.95,20-20,20h-20c-11.05,0-20,8.95-20,20v140c0,11.05-8.95,20-20,20h-20c-11.05,0-20,8.95-20,20v200c0,11.05,8.95,20,20,20h20c11.05,0,20,8.95,20,20h0v20h0c0,11.05,8.95,20,20,20h260c11.04,0,20-8.95,20-20h0v-20h0c0-11.05,8.95-20,20-20h20c11.04,0,20-8.95,20-20h0v-200c0-11.05-8.95-20-20-20ZM240,430c0,11.05-8.95,20-20,20h-20c-11.05,0-20-8.95-20-20v-80c0-11.05,8.95-20,20-20h20c11.05,0,20,8.95,20,20v80Z" fill="#1dfdc0"/>
    <g>
      <path d="M586.22,464.98v-163.43c0-8.29-6.72-15.02-15.02-15.02h-16.19c-8.29,0-15.02-6.72-15.02-15.02v-16.5c0-8.29,6.72-15.02,15.02-15.02h16.61c8.29,0,15.02-6.72,15.02-15.02v-54.65c0-17.2,4.58-29.89,13.75-38.07,9.16-8.18,21.92-12.27,38.28-12.27h56.47c8.29,0,15.02,6.72,15.02,15.02v16.5c0,8.29-6.72,15.02-15.02,15.02h-34.69c-8.29,0-15.02,6.72-15.02,15.02v43.44c0,8.29,6.72,15.02,15.02,15.02h34.69c8.29,0,15.02,6.72,15.02,15.02v16.5c0,8.29-6.72,15.02-15.02,15.02h-34.26c-8.29,0-15.02,6.72-15.02,15.02v163.43c0,8.29-6.72,15.02-15.02,15.02h-29.61c-8.29,0-15.02-6.72-15.02-15.02Z" fill="#fff"/>
      <path d="M857.44,480c-34.12,0-60.56-9.23-79.31-27.71-18.76-18.47-28.13-43.36-28.13-74.66v-122.58c0-8.29,6.72-15.02,15.02-15.02h30.03c8.29,0,15.02,6.72,15.02,15.02v110.32c0,20.59,5.29,36.03,15.86,46.32,10.57,10.3,26.01,15.44,46.32,15.44,21.71,0,38.42-5.5,50.13-16.5,11.7-11,17.55-26.5,17.55-46.53v-109.05c0-8.29,6.72-15.02,15.02-15.02h29.61c8.29,0,15.02,6.72,15.02,15.02v149.93c0,8.29,6.72,15.02,15.02,15.02h0c8.29,0,15.02,6.72,15.02,15.02v29.97c0,8.29-6.72,15.02-15.02,15.02h-31.72c-8.29,0-15.02-6.72-15.02-15.02v-19.82c0-5.52-4.48-10-10-10h-2.57c-3.21,0-6.19,1.56-8.09,4.14-9.11,12.39-20.34,22.08-33.69,29.07-14.8,7.75-33.49,11.63-56.05,11.63Z" fill="#fff"/>
      <path d="M1297.11,480c-34.12,0-60.56-9.23-79.31-27.71-18.76-18.47-28.13-43.36-28.13-74.66v-122.58c0-8.29,6.72-15.02,15.02-15.02h30.03c8.29,0,15.02,6.72,15.02,15.02v110.32c0,20.59,5.29,36.03,15.86,46.32,10.57,10.3,26.01,15.44,46.32,15.44,21.71,0,38.42-5.5,50.13-16.5,11.7-11,17.55-26.5,17.55-46.53v-109.05c0-8.29,6.72-15.02,15.02-15.02h29.61c8.29,0,15.02,6.72,15.02,15.02v149.93c0,8.29,6.72,15.02,15.02,15.02h0c8.29,0,15.02,6.72,15.02,15.02v29.97c0,8.29-6.72,15.02-15.02,15.02h-31.72c-8.29,0-15.02-6.72-15.02-15.02v-19.82c0-5.52-4.48-10-10-10h-2.57c-3.21,0-6.19,1.56-8.09,4.14-9.11,12.39-20.34,22.08-33.69,29.07-14.8,7.75-33.49,11.63-56.05,11.63Z" fill="#fff"/>
      <path d="M1069.6,464.98V135.02c0-8.29,6.72-15.02,15.02-15.02h30.03c8.29,0,15.02,6.72,15.02,15.02v329.97c0,8.29-6.72,15.02-15.02,15.02h-30.03c-8.29,0-15.02-6.72-15.02-15.02Z" fill="#fff"/>
    </g>
  </g>
  <g>
    <path d="M1670.83,529.26V71.14c0-5.93,4.81-10.74,10.74-10.74h12.03c5.93,0,10.74,4.81,10.74,10.74v458.11c0,5.93-4.81,10.74-10.74,10.74h-12.03c-5.93,0-10.74-4.81-10.74-10.74Z" fill="#fff"/>
    <path d="M2056.33,485.56c-20.63,0-38.25-3.73-52.86-11.17-13-6.62-23.61-15.97-31.85-28.04-1.98-2.91-5.3-4.62-8.82-4.62h-1.44c-5.93,0-10.74,4.81-10.74,10.74v17.19c0,5.93-4.81,10.74-10.74,10.74h-23.21c-5.93,0-10.74-4.81-10.74-10.74v-21.49c0-5.93,4.81-10.74,10.74-10.74h0c5.93,0,10.74-4.81,10.74-10.74V130.16c0-5.93,4.81-10.74,10.74-10.74h18.91c5.93,0,10.74,4.81,10.74,10.74v136.23h1.72c8.02-16.04,19.83-28.22,35.45-36.53,15.61-8.31,33.88-12.46,54.79-12.46,24.35,0,45.34,5.37,62.96,16.12,17.62,10.74,31.16,26.15,40.61,46.2,9.45,20.06,14.18,43.98,14.18,71.77s-4.8,51.72-14.4,71.77c-9.6,20.06-23.42,35.45-41.47,46.2s-39.82,16.12-65.32,16.12ZM2050.74,451.18c27.21,0,48.41-8.74,63.6-26.21,15.18-17.47,22.78-41.97,22.78-73.49s-7.59-56.01-22.78-73.49c-15.19-17.47-36.39-26.21-63.6-26.21-24.93,0-44.98,7.16-60.16,21.49-15.19,14.33-22.78,33.38-22.78,57.16v42.11c0,23.78,7.59,42.83,22.78,57.16,15.18,14.33,35.24,21.49,60.16,21.49Z" fill="#fff"/>
    <path d="M2352.41,485.56c-26.36,0-49.28-5.51-68.76-16.54-19.49-11.03-34.59-26.57-45.34-46.63-10.74-20.05-16.12-43.69-16.12-70.91s5.3-50.85,15.9-70.91c10.6-20.05,25.71-35.59,45.34-46.63,19.62-11.03,42.61-16.54,68.97-16.54s50.06,5.45,69.4,16.33c19.34,10.89,34.31,26.36,44.91,46.41,10.6,20.06,15.9,43.83,15.9,71.34s-5.3,50.92-15.9,71.12c-10.6,20.2-25.64,35.74-45.12,46.63-19.49,10.89-42.54,16.33-69.19,16.33ZM2352.41,450.32c28.36,0,50.42-8.66,66.18-26,15.75-17.33,23.63-41.61,23.63-72.84s-7.88-55.87-23.63-73.06c-15.76-17.19-37.82-25.78-66.18-25.78s-50.07,8.67-65.96,26c-15.9,17.34-23.85,41.62-23.85,72.84s7.95,55.51,23.85,72.84c15.9,17.34,37.88,26,65.96,26Z" fill="#fff"/>
    <path d="M2645.06,485.13c-32.09,0-57.58-9.17-76.49-27.5-18.91-18.33-28.36-42.97-28.36-73.92v-150.41c0-5.93,4.81-10.74,10.74-10.74h18.91c5.93,0,10.74,4.81,10.74,10.74v141.81c0,24.35,6.45,42.91,19.34,55.65,12.89,12.75,31.51,19.12,55.87,19.12s45.41-6.59,59.73-19.77c14.32-13.17,21.49-31.51,21.49-55.01v-141.81c0-5.93,4.81-10.74,10.74-10.74h18.91c5.93,0,10.74,4.81,10.74,10.74v193.38c0,5.93,4.81,10.74,10.74,10.74h0c5.93,0,10.74,4.81,10.74,10.74v21.49c0,5.93-4.81,10.74-10.74,10.74h-23.21c-5.93,0-10.74-4.81-10.74-10.74v-17.19c0-5.93-4.81-10.74-10.74-10.74h-1.61c-3.42,0-6.65,1.61-8.65,4.38-8.58,11.92-19.84,21.2-33.79,27.85-15.62,7.45-33.73,11.17-54.36,11.17Z" fill="#fff"/>
    <path d="M2859.92,472.4v-198.87c0-4.42-3.58-8-8-8h-5.49c-4.42,0-8-3.58-8-8v-24.23c0-5.93,4.81-10.74,10.74-10.74h23.21c5.93,0,10.74,4.81,10.74,10.74v19.93c0,4.42,3.58,8,8,8h5.66c2.69,0,5.17-1.36,6.67-3.59,8.41-12.55,19.75-22.17,34.03-28.85,15.61-7.31,33.45-10.96,53.5-10.96,32.37,0,58.16,9.45,77.35,28.36,19.19,18.91,28.79,44.12,28.79,75.63v150.57c0,4.42-3.58,8-8,8h-24.4c-4.42,0-8-3.58-8-8v-144.56c0-24.35-6.66-42.9-19.98-55.65-13.32-12.74-32.73-19.12-58.23-19.12s-44.55,6.38-58.01,19.12c-13.47,12.75-20.2,31.3-20.2,55.65v144.56c0,4.42-3.58,8-8,8h-24.39c-4.42,0-8-3.58-8-8Z" fill="#fff"/>
    <path d="M3227.77,480.4c-12.03,0-21.42-3.08-28.15-9.24-6.73-6.16-10.1-15.4-10.1-27.72v-179.2c0-5.93-4.81-10.74-10.74-10.74h-27.93c-5.93,0-10.74-4.81-10.74-10.74v-9.45c0-5.93,4.81-10.74,10.74-10.74h28.36c5.93,0,10.74-4.81,10.74-10.74v-55.87c0-5.93,4.81-10.74,10.74-10.74h18.05c5.93,0,10.74,4.81,10.74,10.74v55.87c0,5.93,4.81,10.74,10.74,10.74h48.99c5.93,0,10.74,4.81,10.74,10.74v9.45c0,5.93-4.81,10.74-10.74,10.74h-48.56c-5.93,0-10.74,4.81-10.74,10.74v176.36c0,4.42,3.58,8,8,8h60.92c4.42,0,8,3.58,8,8v15.8c0,4.42-3.58,8-8,8h-71.07Z" fill="#fff"/>
    <path d="M3377.32,183.88c-7.16,0-13.25-2.5-18.26-7.52-5.02-5.01-7.52-11.1-7.52-18.26s2.5-13.25,7.52-18.26c5.01-5.01,11.1-7.52,18.26-7.52s13.25,2.51,18.26,7.52c5.01,5.02,7.52,11.11,7.52,18.26s-2.51,13.25-7.52,18.26c-5.02,5.02-11.11,7.52-18.26,7.52ZM3357.12,469.66v-236.36c0-5.93,4.81-10.74,10.74-10.74h18.91c5.93,0,10.74,4.81,10.74,10.74v236.36c0,5.93-4.81,10.74-10.74,10.74h-18.91c-5.93,0-10.74-4.81-10.74-10.74Z" fill="#fff"/>
    <path d="M3589.6,485.56c-26.36,0-49.28-5.51-68.76-16.54-19.49-11.03-34.53-26.71-45.12-47.06-10.6-20.34-15.9-44.12-15.9-71.34s5.3-50.78,15.9-70.69c10.6-19.91,25.5-35.31,44.69-46.2,19.19-10.88,41.68-16.33,67.47-16.33,24.35,0,45.41,4.94,63.17,14.83,17.76,9.88,31.59,23.85,41.47,41.9s14.83,39.39,14.83,64.03v7.31c0,5.93-4.81,10.74-10.74,10.74h-189.56c-4.69,0-8.41,4.03-7.97,8.7,2.39,25.38,10.87,45.54,25.43,60.49,16.18,16.62,37.74,24.92,64.67,24.92,18.62,0,34.45-4.01,47.49-12.03,11.1-6.83,19.24-16.26,24.42-28.29,1.7-3.95,5.57-6.51,9.87-6.51h19.14c7.56,0,12.76,7.61,10.02,14.65-7.44,19.11-19.28,34.43-35.52,45.94-20.2,14.33-45.2,21.49-74.99,21.49ZM3514.18,325.26h141.67c6.82,0,11.91-6.27,10.52-12.95-3.55-17.08-11.09-30.81-22.63-41.2-14.33-12.89-33.09-19.34-56.3-19.34s-42.48,6.45-57.8,19.34c-12.16,10.23-20.76,23.7-25.8,40.43-2.06,6.84,3.18,13.72,10.32,13.72Z" fill="#fff"/>
    <path d="M3862.48,485.56c-34.96,0-62.6-7.23-82.94-21.7-16.83-11.96-27.38-27.9-31.66-47.81-1.44-6.69,3.67-13,10.51-13h19.09c4.87,0,9.21,3.26,10.38,7.98,3.14,12.64,9.97,22.3,20.47,28.97,12.6,8.02,31.08,12.03,55.44,12.03,43.83,0,65.75-14.03,65.75-42.11,0-11.46-3.37-20.26-10.1-26.43-6.73-6.16-18.12-10.67-34.16-13.54l-56.3-10.31c-46.7-8.59-70.05-30.94-70.05-67.04,0-23.21,8.74-41.54,26.21-55.01,17.47-13.46,41.4-20.2,71.77-20.2s56.22,6.88,74.99,20.63c15.18,11.13,25.16,25.82,29.93,44.07,1.79,6.83-3.33,13.51-10.39,13.51h-18.38c-4.6,0-8.75-2.91-10.17-7.29-3.74-11.55-10.26-20.36-19.57-26.45-11.17-7.31-26.79-10.96-46.84-10.96s-33.95,3.37-44.26,10.1c-10.31,6.73-15.47,16.54-15.47,29.44,0,9.74,3.36,17.4,10.1,22.99,6.73,5.59,17.69,9.82,32.88,12.68l55.87,10.31c24.64,4.59,42.69,12.61,54.15,24.07,11.46,11.46,17.19,26.93,17.19,46.41,0,24.92-9.02,44.26-27.07,58.01-18.05,13.75-43.83,20.63-77.35,20.63Z" fill="#fff"/>
  </g>
</svg>